# xmcd
#
# Track frame offsets:
# 150
# 19755
# 37617
# 52087
# 67675
# 84602
# 101350
# 118522
# 134032
# 153200
# 171132
# 191475
# 209277
# 231140
#
# Disc length: 3328 seconds
#
#
# Revision: 4
# Processed by: cddbd v1.5.2PL0 Copyright (c) Steve Scherf et al.
# Submitted via: FreeRIP 2.96 
#
DISCID=ae0cfe0e
DTITLE=Shaggy - Mr. Lover Lover (The best of Shaggy part 1)
DYEAR=2002
DGENRE=Dancehall
TTITLE0=Boombastic (Sting Remix)
TTITLE1=In The Summertime (feat, Rayvon)
TTITLE2=Oh Carolina
TTITLE3=Luv Me Luv Me (feat, Janet Jackson)
TTITLE4=Nice And Lovely
TTITLE5=The Train Is Coming
TTITLE6=Why You Treat Me So Bad
TTITLE7=Big Up (feat, Rayvon)
TTITLE8=Piece Of My Heart
TTITLE9=Sexy Body Girl
TTITLE10=Something Different
TTITLE11=That Girl Maxi Priest (Feat, Shaggy and Rayvon)
TTITLE12=Get Up, Stand Up
TTITLE13=Boombastic
EXTD=The best of Shaggy ... part 1 YEAR: 2002
EXTT0=
EXTT1=Shaggy feat . Rayvon
EXTT2=
EXTT3=Shaggy feat. Janet Jackson
EXTT4=
EXTT5=
EXTT6=
EXTT7=Shaggy feat, Rayvon
EXTT8=
EXTT9=
EXTT10=
EXTT11=
EXTT12=
EXTT13=
PLAYORDER=
